<svg width="1920" height="1080" xmlns="http://www.w3.org/2000/svg" stroke="null" style="vector-effect: non-scaling-stroke;">
 <g stroke="null" id="Layer_1">
  <title stroke="null">Layer 1</title>
  <ellipse stroke="#000" transform="rotate(177.925 1304.64 -257.712)" fill-opacity="0.2" ry="181.19308" rx="315.69926" id="svg_27" cy="-125.71208" cx="1185.63924" stroke-width="0" fill="#94ba91"/>
  <path stroke="#000" id="svg_3" d="m72.0002,990.40021" opacity="NaN" fill-opacity="0.2" stroke-width="0" fill="#94ba91"/>
  <ellipse stroke="#000" style="vector-effect: non-scaling-stroke;" ry="158.00003" rx="532.0001" id="svg_6" cy="488.40011" cx="652.00031" fill-opacity="0.2" stroke-width="0" fill="#94ba91"/>
  <ellipse stroke="#000" style="vector-effect: non-scaling-stroke;" ry="132.00003" rx="634.00012" id="svg_7" cy="248.40007" cx="1064.00039" fill-opacity="0.2" stroke-width="0" fill="#94ba91"/>
  <ellipse stroke="#000" style="vector-effect: non-scaling-stroke;" ry="114.00002" rx="383.00009" id="svg_8" cy="340.40008" cx="329.00027" fill-opacity="0.2" stroke-width="0" fill="#94ba91"/>
  <ellipse stroke="#000" style="vector-effect: non-scaling-stroke;" ry="92.00002" rx="488.00009" id="svg_9" cy="72.40003" cx="1712.00051" fill-opacity="0.2" stroke-width="0" fill="#94ba91"/>
  <ellipse stroke="#000" style="vector-effect: non-scaling-stroke;" ry="158.00003" rx="518.0001" id="svg_11" cy="526.40011" cx="254.00022" fill-opacity="0.2" stroke-width="0" fill="#94ba91"/>
  <ellipse stroke="#000" style="vector-effect: non-scaling-stroke;" ry="109.00002" rx="519.0001" id="svg_12" cy="451.4001" cx="1331.00044" fill-opacity="0.2" stroke-width="0" fill="#94ba91"/>
  <ellipse stroke="#000" style="vector-effect: non-scaling-stroke;" ry="164.00003" rx="419.00008" id="svg_13" cy="454.40011" cx="1639.00051" fill-opacity="0.2" stroke-width="0" fill="#94ba91"/>
  <ellipse stroke="#000" style="vector-effect: non-scaling-stroke;" ry="156.00003" rx="310.00006" id="svg_14" cy="238.40006" cx="1764.00052" fill-opacity="0.2" stroke-width="0" fill="#94ba91"/>
  <ellipse stroke="#000" style="vector-effect: non-scaling-stroke;" ry="133.00003" rx="487.00009" id="svg_15" cy="113.40004" cx="1097.0004" fill-opacity="0.2" stroke-width="0" fill="#94ba91"/>
  <ellipse stroke="#000" style="vector-effect: non-scaling-stroke;" ry="112.00002" rx="377.00007" id="svg_16" cy="96.40004" cx="661.00031" fill-opacity="0.2" stroke-width="0" fill="#94ba91"/>
  <ellipse stroke="#000" style="vector-effect: non-scaling-stroke;" ry="191.00004" rx="442.00008" id="svg_17" cy="139.40004" cx="138.00021" fill-opacity="0.2" stroke-width="0" fill="#94ba91"/>
  <ellipse stroke="#000" id="svg_18" cy="188.40006" cx="112.0002" fill-opacity="0.2" stroke-width="0" fill="#94ba91"/>
  <ellipse stroke="#000" style="vector-effect: non-scaling-stroke;" ry="158.00003" rx="518.0001" id="svg_19" cy="768.40016" cx="306.00024" fill-opacity="0.2" stroke-width="0" fill="#94ba91"/>
  <ellipse stroke="#000" style="vector-effect: non-scaling-stroke;" ry="158.00003" rx="518.0001" id="svg_20" cy="612.40013" cx="1078.00041" fill-opacity="0.2" stroke-width="0" fill="#94ba91"/>
  <ellipse stroke="#000" style="vector-effect: non-scaling-stroke;" ry="158.00003" rx="518.0001" id="svg_21" cy="740.40016" cx="946.00035" fill-opacity="0.2" stroke-width="0" fill="#94ba91"/>
  <ellipse stroke="#000" style="vector-effect: non-scaling-stroke;" ry="158.00003" rx="518.0001" id="svg_22" cy="972.4002" cx="384.00025" fill-opacity="0.2" stroke-width="0" fill="#94ba91"/>
  <ellipse stroke="#000" style="vector-effect: non-scaling-stroke;" ry="158.00003" rx="518.0001" id="svg_23" cy="734.40016" cx="1790.00047" fill-opacity="0.2" stroke-width="0" fill="#94ba91"/>
  <ellipse stroke="#000" style="vector-effect: non-scaling-stroke;" ry="158.00003" rx="518.0001" id="svg_24" cy="974.4002" cx="1118.00041" fill-opacity="0.2" stroke-width="0" fill="#94ba91"/>
  <ellipse stroke="#000" style="vector-effect: non-scaling-stroke;" ry="158.00003" rx="518.0001" id="svg_25" cy="942.4002" cx="1606.00045" fill-opacity="0.2" stroke-width="0" fill="#94ba91"/>
  <ellipse stroke="#000" style="vector-effect: non-scaling-stroke;" transform="rotate(90.2552 1907.16 567.098)" ry="158.00003" rx="564.70577" id="svg_26" cy="567.09835" cx="1907.1631" fill-opacity="0.2" stroke-width="0" fill="#94ba91"/>
  <ellipse stroke="#000" style="vector-effect: non-scaling-stroke;" transform="rotate(90.2552 1907.16 567.098)" ry="158.00003" rx="564.70577" id="svg_28" cy="567.09835" cx="1907.1631" fill-opacity="0.2" stroke-width="0" fill="#94ba91"/>
  <ellipse stroke="#000" style="vector-effect: non-scaling-stroke;" transform="rotate(90.2552 317.213 541.044)" ry="619.95095" rx="564.70577" id="svg_29" cy="541.04351" cx="317.21293" fill-opacity="0.2" stroke-width="0" fill="#94ba91"/>
  <ellipse stroke="#000" style="vector-effect: non-scaling-stroke;" transform="rotate(90.2552 1545.67 543.117) matrix(1 0 0 1 0 0) matrix(1 0 0 1 0 0) matrix(1 0 0 1 0 0)" ry="610.51233" rx="564.70577" id="svg_30" cy="543.11658" cx="1545.66732" fill-opacity="0.2" stroke-width="0" fill="#94ba91"/>
  <ellipse transform="rotate(90.2552 43.1597 529.098)" stroke="#000" ry="158.00003" rx="564.70577" id="svg_31" cy="529.09835" cx="43.16273" fill-opacity="0.2" stroke-width="0" fill="#94ba91"/>
  <ellipse transform="rotate(179.675 992.908 460.102)" stroke="#000" ry="735.01128" rx="564.70577" id="svg_32" cy="460.10202" cx="992.90795" fill-opacity="0.2" stroke-width="0" fill="#94ba91"/>
 </g>

</svg>