<svg width="113" height="113" xmlns="http://www.w3.org/2000/svg" xmlns:xlink="http://www.w3.org/1999/xlink" overflow="hidden"><defs><clipPath id="clip0"><rect x="738" y="205" width="113" height="113"/></clipPath></defs><g clip-path="url(#clip0)" transform="translate(-738 -205)"><path d="M791.098 222.656C791.098 227.207 787.409 230.896 782.859 230.896 778.308 230.896 774.619 227.207 774.619 222.656 774.619 218.106 778.308 214.417 782.859 214.417 787.409 214.417 791.098 218.106 791.098 222.656Z"/><path d="M820.525 270.917C820.525 274.167 817.89 276.802 814.64 276.802 811.39 276.802 808.755 274.167 808.755 270.917 808.755 267.666 811.39 265.031 814.64 265.031 817.89 265.031 820.525 267.666 820.525 270.917Z"/><path d="M827.352 292.34 823.233 282.452C821.724 280.394 819.569 278.902 817.112 278.215 816.295 278.072 815.469 277.994 814.64 277.979L808.755 277.979 803.846 269.645C804.041 269.068 804.066 268.447 803.917 267.856L798.384 240.077C796.101 237.567 793.229 235.666 790.027 234.545 787.689 233.688 785.219 233.249 782.729 233.25 780.236 233.258 777.763 233.696 775.419 234.545 772.247 235.725 769.388 237.617 767.062 240.077L761.542 267.856C761.184 269.773 762.448 271.618 764.365 271.976 764.365 271.976 764.366 271.976 764.367 271.976 764.602 271.976 764.838 272.094 765.073 272.094 766.749 272.114 768.193 270.919 768.486 269.269L773.43 245.374 773.43 257.969 768.957 280.451 773.43 280.451 773.43 308.583 780.493 308.583 780.493 280.451 785.201 280.451 785.201 308.583 792.264 308.583 792.264 280.451 796.736 280.451 792.275 257.969 792.275 245.374 797.101 269.269C797.321 270.703 798.428 271.838 799.856 272.094L808.755 287.16 808.755 308.583 813.463 308.583 813.463 294.458 815.817 294.458 815.817 308.583 820.525 308.583 820.525 288.102 823.115 294.223C823.463 295.085 824.304 295.645 825.234 295.635 825.565 295.671 825.899 295.587 826.175 295.4 827.322 294.941 827.879 293.639 827.42 292.492 827.4 292.441 827.377 292.39 827.352 292.34Z"/></g></svg>