<svg width="378" height="378" xmlns="http://www.w3.org/2000/svg" xmlns:xlink="http://www.w3.org/1999/xlink" overflow="hidden"><defs><clipPath id="clip0"><rect x="918" y="213" width="378" height="378"/></clipPath></defs><g clip-path="url(#clip0)" transform="translate(-918 -213)"><path d="M1095.62 272.062C1095.62 287.285 1083.28 299.625 1068.06 299.625 1052.84 299.625 1040.5 287.285 1040.5 272.062 1040.5 256.84 1052.84 244.5 1068.06 244.5 1083.28 244.5 1095.62 256.84 1095.62 272.062Z" stroke="#009688" stroke-width="3.93766" fill="#009688"/><path d="M1194.06 433.5C1194.06 444.373 1185.24 453.188 1174.37 453.188 1163.5 453.188 1154.68 444.373 1154.68 433.5 1154.68 422.627 1163.5 413.812 1174.37 413.812 1185.24 413.812 1194.06 422.627 1194.06 433.5Z" stroke="#009688" stroke-width="3.93766" fill="#009688"/><path d="M1216.9 505.162 1203.11 472.088C1198.07 465.203 1190.86 460.212 1182.64 457.913 1179.91 457.436 1177.14 457.173 1174.37 457.125L1154.68 457.125 1138.26 429.247C1138.92 427.317 1139 425.239 1138.5 423.263L1119.99 330.337C1112.36 321.942 1102.75 315.582 1092.04 311.831 1084.22 308.964 1075.95 307.498 1067.62 307.5 1059.29 307.526 1051.01 308.991 1043.17 311.831 1032.56 315.778 1023 322.11 1015.22 330.337L996.75 423.263C995.553 429.676 999.781 435.845 1006.19 437.043 1006.2 437.043 1006.2 437.043 1006.2 437.044 1006.99 437.044 1007.78 437.438 1008.56 437.438 1014.17 437.505 1019 433.507 1019.98 427.987L1036.52 348.056 1036.52 390.188 1021.56 465.394 1036.52 465.394 1036.52 559.5 1060.14 559.5 1060.14 465.394 1075.89 465.394 1075.89 559.5 1099.52 559.5 1099.52 465.394 1114.48 465.394 1099.56 390.188 1099.56 348.056 1115.7 427.987C1116.44 432.785 1120.14 436.583 1124.92 437.438L1154.68 487.838 1154.68 559.5 1170.43 559.5 1170.43 512.25 1178.31 512.25 1178.31 559.5 1194.06 559.5 1194.06 490.987 1202.72 511.463C1203.89 514.345 1206.7 516.22 1209.81 516.188 1210.92 516.305 1212.03 516.026 1212.96 515.4 1216.79 513.864 1218.66 509.51 1217.12 505.674 1217.05 505.501 1216.98 505.33 1216.9 505.162Z" stroke="#009688" stroke-width="3.93766" fill="#009688"/></g></svg>