<svg width="378" height="378" xmlns="http://www.w3.org/2000/svg" xmlns:xlink="http://www.w3.org/1999/xlink" overflow="hidden"><defs><clipPath id="clip0"><rect x="932" y="236" width="378" height="378"/></clipPath></defs><g clip-path="url(#clip0)" transform="translate(-932 -236)"><path d="M1109.62 295.062C1109.62 310.285 1097.28 322.625 1082.06 322.625 1066.84 322.625 1054.5 310.285 1054.5 295.062 1054.5 279.84 1066.84 267.5 1082.06 267.5 1097.28 267.5 1109.62 279.84 1109.62 295.062Z" stroke="#2E75B6" stroke-width="3.9376" fill="#9DC3E6"/><path d="M1208.06 456.5C1208.06 467.373 1199.24 476.188 1188.37 476.188 1177.5 476.188 1168.68 467.373 1168.68 456.5 1168.68 445.627 1177.5 436.812 1188.37 436.812 1199.24 436.812 1208.06 445.627 1208.06 456.5Z" stroke="#2E75B6" stroke-width="3.9376" fill="#9DC3E6"/><path d="M1230.9 528.162 1217.11 495.088C1212.07 488.203 1204.86 483.212 1196.64 480.913 1193.91 480.436 1191.14 480.173 1188.37 480.125L1168.68 480.125 1152.26 452.247C1152.92 450.317 1153 448.239 1152.5 446.263L1133.99 353.337C1126.36 344.942 1116.75 338.582 1106.04 334.831 1098.22 331.964 1089.95 330.498 1081.62 330.5 1073.29 330.526 1065.01 331.991 1057.17 334.831 1046.56 338.778 1037 345.11 1029.22 353.337L1010.75 446.263C1009.55 452.676 1013.78 458.845 1020.19 460.043 1020.2 460.043 1020.2 460.043 1020.2 460.044 1020.99 460.044 1021.78 460.438 1022.56 460.438 1028.17 460.505 1033 456.507 1033.98 450.987L1050.52 371.056 1050.52 413.188 1035.56 488.394 1050.52 488.394 1050.52 582.5 1074.14 582.5 1074.14 488.394 1089.89 488.394 1089.89 582.5 1113.52 582.5 1113.52 488.394 1128.48 488.394 1113.56 413.188 1113.56 371.056 1129.7 450.987C1130.44 455.785 1134.14 459.583 1138.92 460.438L1168.68 510.838 1168.68 582.5 1184.43 582.5 1184.43 535.25 1192.31 535.25 1192.31 582.5 1208.06 582.5 1208.06 513.987 1216.72 534.463C1217.89 537.345 1220.7 539.22 1223.81 539.188 1224.92 539.305 1226.03 539.026 1226.96 538.4 1230.79 536.864 1232.66 532.51 1231.12 528.674 1231.05 528.501 1230.98 528.33 1230.9 528.162Z" stroke="#2E75B6" stroke-width="3.9376" fill="#9DC3E6"/></g></svg>