<svg width="378" height="378" xmlns="http://www.w3.org/2000/svg" xmlns:xlink="http://www.w3.org/1999/xlink" overflow="hidden"><defs><clipPath id="clip0"><rect x="608" y="78" width="378" height="378"/></clipPath></defs><g clip-path="url(#clip0)" transform="translate(-608 -78)"><path d="M690.688 204.748C701.561 204.748 710.375 195.934 710.375 185.061 710.375 174.188 701.561 165.373 690.688 165.373 679.814 165.373 671 174.188 671 185.061 671 195.934 679.814 204.748 690.688 204.748Z" stroke="#2E75B6" stroke-width="3.93745" fill="#9DC3E6"/><path d="M716.36 249.36C718.057 250.584 720.095 251.245 722.188 251.25L749.75 251.25C755.187 251.25 759.594 246.843 759.594 241.406 759.594 235.97 755.187 231.562 749.75 231.562L725.416 231.562 706.674 217.821C702.581 212.197 695.791 209.192 688.876 209.946 678.688 211.212 671.096 219.959 671.276 230.224L671.276 286.688C671.276 297.56 680.09 306.375 690.963 306.375L710.375 306.375 710.375 306.375 734 306.375 734 356.46C734 361.897 738.407 366.304 743.844 366.304 749.28 366.304 753.688 361.897 753.688 356.46L753.688 296.413C753.688 290.977 749.28 286.569 743.844 286.569L710.375 286.569 710.375 244.911Z" stroke="#2E75B6" stroke-width="3.93745" fill="#9DC3E6"/><path d="M903.312 204.748C914.186 204.748 923 195.934 923 185.061 923 174.188 914.186 165.373 903.312 165.373 892.439 165.373 883.625 174.188 883.625 185.061 883.625 195.934 892.439 204.748 903.312 204.748Z" stroke="#2E75B6" stroke-width="3.93745" fill="#9DC3E6"/><path d="M905.124 209.749C898.209 208.995 891.419 212 887.326 217.624L868.584 231.562 844.25 231.562C838.813 231.562 834.406 235.97 834.406 241.406 834.406 246.843 838.813 251.25 844.25 251.25L871.812 251.25C873.905 251.245 875.943 250.584 877.64 249.36L883.625 244.911 883.625 286.688 850.274 286.688C844.838 286.688 840.431 291.095 840.431 296.531L840.431 356.46C840.431 361.897 844.838 366.304 850.274 366.304 855.711 366.304 860.118 361.897 860.118 356.46L860.118 306.375 883.743 306.375 883.743 306.375 902.958 306.375C913.831 306.375 922.646 297.56 922.646 286.688L922.646 230.027C922.83 219.789 915.28 211.052 905.124 209.749Z" stroke="#2E75B6" stroke-width="3.93745" fill="#9DC3E6"/><path d="M863.938 259.125 730.062 259.125C725.713 259.125 722.188 262.651 722.188 267 722.188 271.349 725.713 274.875 730.062 274.875L789.125 274.875 789.125 353.625 765.5 353.625 765.5 369.375 828.5 369.375 828.5 353.625 804.875 353.625 804.875 274.875 863.938 274.875C868.287 274.875 871.812 271.349 871.812 267 871.812 262.651 868.287 259.125 863.938 259.125Z" stroke="#2E75B6" stroke-width="3.93745" fill="#9DC3E6"/><path d="M718.25 314.25 663.125 314.25 663.125 235.5C663.125 231.151 659.599 227.625 655.25 227.625 650.901 227.625 647.375 231.151 647.375 235.5L647.375 322.125C647.375 326.474 650.901 330 655.25 330L678.875 330 678.875 353.625 663.125 353.625 663.125 369.375 710.375 369.375 710.375 353.625 694.625 353.625 694.625 330 718.25 330C722.599 330 726.125 326.474 726.125 322.125 726.125 317.776 722.599 314.25 718.25 314.25Z" stroke="#2E75B6" stroke-width="3.93745" fill="#9DC3E6"/><path d="M938.75 229.594C934.401 229.594 930.875 233.119 930.875 237.469L930.875 314.25 875.75 314.25C871.401 314.25 867.875 317.776 867.875 322.125 867.875 326.474 871.401 330 875.75 330L899.375 330 899.375 353.625 883.625 353.625 883.625 369.375 930.875 369.375 930.875 353.625 915.125 353.625 915.125 330 938.75 330C943.099 330 946.625 326.474 946.625 322.125L946.625 237.469C946.625 233.119 943.099 229.594 938.75 229.594Z" stroke="#2E75B6" stroke-width="3.93745" fill="#9DC3E6"/></g></svg>