<svg width="378" height="378" xmlns="http://www.w3.org/2000/svg" xmlns:xlink="http://www.w3.org/1999/xlink" overflow="hidden"><defs><clipPath id="clip0"><rect x="503" y="92" width="378" height="378"/></clipPath></defs><g clip-path="url(#clip0)" transform="translate(-503 -92)"><path d="M585.688 218.748C596.561 218.748 605.375 209.934 605.375 199.061 605.375 188.188 596.561 179.373 585.688 179.373 574.814 179.373 566 188.188 566 199.061 566 209.934 574.814 218.748 585.688 218.748Z" stroke="#009688" stroke-width="3.93745" fill="#009688"/><path d="M611.36 263.36C613.057 264.584 615.095 265.245 617.188 265.25L644.75 265.25C650.187 265.25 654.594 260.843 654.594 255.406 654.594 249.97 650.187 245.562 644.75 245.562L620.416 245.562 601.674 231.821C597.581 226.197 590.791 223.192 583.876 223.946 573.688 225.212 566.096 233.959 566.276 244.224L566.276 300.688C566.276 311.56 575.09 320.375 585.963 320.375L605.375 320.375 605.375 320.375 629 320.375 629 370.46C629 375.897 633.407 380.304 638.844 380.304 644.28 380.304 648.688 375.897 648.688 370.46L648.688 310.413C648.688 304.977 644.28 300.569 638.844 300.569L605.375 300.569 605.375 258.911Z" stroke="#009688" stroke-width="3.93745" fill="#009688"/><path d="M798.312 218.748C809.186 218.748 818 209.934 818 199.061 818 188.188 809.186 179.373 798.312 179.373 787.439 179.373 778.625 188.188 778.625 199.061 778.625 209.934 787.439 218.748 798.312 218.748Z" stroke="#009688" stroke-width="3.93745" fill="#009688"/><path d="M800.124 223.749C793.209 222.995 786.419 226 782.326 231.624L763.584 245.562 739.25 245.562C733.813 245.562 729.406 249.97 729.406 255.406 729.406 260.843 733.813 265.25 739.25 265.25L766.812 265.25C768.905 265.245 770.943 264.584 772.64 263.36L778.625 258.911 778.625 300.688 745.274 300.688C739.838 300.688 735.431 305.095 735.431 310.531L735.431 370.46C735.431 375.897 739.838 380.304 745.274 380.304 750.711 380.304 755.118 375.897 755.118 370.46L755.118 320.375 778.743 320.375 778.743 320.375 797.958 320.375C808.831 320.375 817.646 311.56 817.646 300.688L817.646 244.027C817.83 233.789 810.28 225.052 800.124 223.749Z" stroke="#009688" stroke-width="3.93745" fill="#009688"/><path d="M758.938 273.125 625.062 273.125C620.713 273.125 617.188 276.651 617.188 281 617.188 285.349 620.713 288.875 625.062 288.875L684.125 288.875 684.125 367.625 660.5 367.625 660.5 383.375 723.5 383.375 723.5 367.625 699.875 367.625 699.875 288.875 758.938 288.875C763.287 288.875 766.812 285.349 766.812 281 766.812 276.651 763.287 273.125 758.938 273.125Z" stroke="#009688" stroke-width="3.93745" fill="#009688"/><path d="M613.25 328.25 558.125 328.25 558.125 249.5C558.125 245.151 554.599 241.625 550.25 241.625 545.901 241.625 542.375 245.151 542.375 249.5L542.375 336.125C542.375 340.474 545.901 344 550.25 344L573.875 344 573.875 367.625 558.125 367.625 558.125 383.375 605.375 383.375 605.375 367.625 589.625 367.625 589.625 344 613.25 344C617.599 344 621.125 340.474 621.125 336.125 621.125 331.776 617.599 328.25 613.25 328.25Z" stroke="#009688" stroke-width="3.93745" fill="#009688"/><path d="M833.75 243.594C829.401 243.594 825.875 247.119 825.875 251.469L825.875 328.25 770.75 328.25C766.401 328.25 762.875 331.776 762.875 336.125 762.875 340.474 766.401 344 770.75 344L794.375 344 794.375 367.625 778.625 367.625 778.625 383.375 825.875 383.375 825.875 367.625 810.125 367.625 810.125 344 833.75 344C838.099 344 841.625 340.474 841.625 336.125L841.625 251.469C841.625 247.119 838.099 243.594 833.75 243.594Z" stroke="#009688" stroke-width="3.93745" fill="#009688"/></g></svg>