<svg width="102" height="102" xmlns="http://www.w3.org/2000/svg" xmlns:xlink="http://www.w3.org/1999/xlink" overflow="hidden"><defs><clipPath id="clip0"><rect x="1010" y="210" width="102" height="102"/></clipPath></defs><g clip-path="url(#clip0)" transform="translate(-1010 -210)"><path d="M1061.01 270.562C1064.14 270.593 1067.26 270.171 1070.27 269.312L1069.9 275.875 1094.44 275.875C1093.8 273.968 1092.62 272.29 1091.04 271.047 1087.07 267.795 1082.4 265.788 1077.49 264.034L1072.3 261.902C1071.9 261.738 1071.64 261.35 1071.64 260.919L1071.64 258.317C1075.67 255.096 1078.01 250.219 1078.01 245.062L1078.01 243.469C1078.94 241.585 1079.53 239.552 1079.75 237.465 1079.74 230.326 1075.21 224.556 1069.07 221.568 1068.57 221.331 1067.97 221.384 1067.52 221.708L1066.44 222.451 1065.26 220.837C1064.89 220.326 1064.34 219.975 1063.72 219.861 1062.62 219.666 1061.5 219.566 1060.38 219.562 1052.91 219.562 1046.74 223.611 1044.18 229.762 1042.5 234.362 1042.43 239.395 1043.98 244.039L1044.01 244.262 1044.01 245.062C1044.01 250.216 1046.35 255.089 1050.38 258.31L1050.38 260.919C1050.38 261.35 1050.11 261.738 1049.72 261.902L1044.49 264.046C1039.6 265.796 1034.95 267.798 1031.01 271.018 1028.53 272.958 1027.06 275.915 1027.01 279.062L1027.01 286.163C1026.54 286.123 1026.07 286.123 1025.59 286.163L1016.84 257.476C1016.57 256.639 1015.67 256.181 1014.83 256.454 1014.02 256.719 1013.56 257.581 1013.79 258.405L1022.48 286.88C1019.24 287.963 1017.21 289.834 1018.81 296.007 1019.43 298.411 1020.37 301.001 1022.62 302.014 1023.27 302.301 1023.97 302.446 1024.68 302.438 1025.81 302.384 1026.93 302.191 1028.01 301.861 1029.33 301.569 1030.57 300.951 1031.59 300.062 1036.71 301.858 1044.71 302.965 1053.36 303.381L1051.73 269.313C1054.75 270.173 1057.87 270.594 1061.01 270.562ZM1027.02 297.727C1026.17 298.038 1025.26 298.178 1024.36 298.141 1024.24 298.089 1023.63 297.69 1022.92 294.948 1022 291.38 1021.99 291.349 1025.07 290.552L1025.34 290.483C1025.95 290.346 1026.57 290.344 1027.18 290.477L1027.42 290.53C1028.71 290.819 1029.74 291.79 1030.11 293.063 1030.53 295.204 1029.15 297.285 1027.02 297.727ZM1061.01 266.312C1058.15 266.343 1055.3 265.939 1052.56 265.114 1053.86 264.113 1054.63 262.563 1054.62 260.919L1054.62 260.813C1058.71 262.483 1063.29 262.483 1067.38 260.813L1067.38 260.919C1067.38 262.565 1068.15 264.117 1069.45 265.118 1066.71 265.94 1063.87 266.343 1061.01 266.312ZM1048.26 245.062 1048.26 241.45C1053.63 234.969 1059.39 239.349 1068.91 232.711 1070.2 231.809 1071.52 237.8 1073.76 239.893L1073.76 245.062C1073.76 252.104 1068.05 257.812 1061.01 257.812 1053.97 257.812 1048.26 252.104 1048.26 245.062Z"/><path d="M1059.94 278 1059.94 307.102 1074.82 307.102C1074.82 308.03 1075.56 308.789 1076.49 308.812L1082.19 308.812C1083.14 308.812 1083.91 308.048 1083.91 307.102L1098.79 307.102 1098.79 278ZM1078.24 303.681 1063.37 303.681 1063.37 281.368 1078.24 281.368ZM1095.33 303.681 1080.45 303.681 1080.45 281.368 1095.33 281.368Z"/><path d="M1083.91 287.127 1091.9 287.127 1091.9 288.837 1083.91 288.837Z"/><path d="M1083.91 290.548 1091.9 290.548 1091.9 292.259 1083.91 292.259Z"/><path d="M1083.91 293.98 1089.45 293.98 1089.45 295.691 1083.91 295.691Z"/></g></svg>