<svg width="348" height="348" xmlns="http://www.w3.org/2000/svg" xmlns:xlink="http://www.w3.org/1999/xlink" overflow="hidden"><defs><clipPath id="clip0"><rect x="81" y="213" width="348" height="348"/></clipPath></defs><g clip-path="url(#clip0)" transform="translate(-81 -213)"><path d="M255 379.435C263.008 379.435 269.5 372.943 269.5 364.935 269.5 356.927 263.008 350.435 255 350.435 246.992 350.435 240.5 356.927 240.5 364.935 240.416 372.858 246.77 379.35 254.694 379.435 254.796 379.436 254.898 379.436 255 379.435ZM255 357.685C259.004 357.685 262.25 360.93 262.25 364.935 262.25 368.939 259.004 372.185 255 372.185 250.996 372.185 247.75 368.939 247.75 364.935 247.659 361.018 250.761 357.769 254.677 357.677 254.785 357.675 254.892 357.675 255 357.677Z" stroke="#009688" stroke-width="3.62495" fill="#009688"/><path d="M302.125 372.185 302.125 355.905 303.633 357.413 322.519 338.334 255 273.538 186.009 339.44 205.243 358.547 207.875 355.912 207.875 372.185 120.875 372.185 120.875 502.717 229.625 502.717 229.625 463.125C229.625 449.111 240.986 437.75 255 437.75 269.014 437.75 280.375 449.111 280.375 463.125L280.375 502.717 389.125 502.717 389.125 372.185ZM205.225 348.31 196.398 339.542 255 283.593 312.192 338.469 303.618 347.125 302.125 345.65 302.125 345.624 255 298.499 207.875 345.624 207.875 345.675ZM381.875 495.467 287.625 495.467 287.625 463.125C287.625 445.107 273.018 430.5 255 430.5 236.982 430.5 222.375 445.107 222.375 463.125L222.375 495.467 128.125 495.467 128.125 379.435 215.125 379.435 215.125 348.662 219.986 343.801 219.986 343.801 255 308.74 286.828 340.575 286.828 340.575 294.875 348.655 294.875 379.435 381.875 379.435Z" stroke="#009688" stroke-width="3.62495" fill="#009688"/><path d="M149.875 401.5 157.125 401.5 157.125 430.5 149.875 430.5Z" stroke="#009688" stroke-width="3.62495" fill="#009688"/><path d="M171.625 401.5 178.875 401.5 178.875 430.5 171.625 430.5Z" stroke="#009688" stroke-width="3.62495" fill="#009688"/><path d="M149.875 445 157.125 445 157.125 474 149.875 474Z" stroke="#009688" stroke-width="3.62495" fill="#009688"/><path d="M171.625 445 178.875 445 178.875 474 171.625 474Z" stroke="#009688" stroke-width="3.62495" fill="#009688"/><path d="M193.375 401.5 200.625 401.5 200.625 430.5 193.375 430.5Z" stroke="#009688" stroke-width="3.62495" fill="#009688"/><path d="M193.375 445 200.625 445 200.625 474 193.375 474Z" stroke="#009688" stroke-width="3.62495" fill="#009688"/><path d="M309.375 401.5 316.625 401.5 316.625 430.5 309.375 430.5Z" stroke="#009688" stroke-width="3.62495" fill="#009688"/><path d="M331.125 401.5 338.375 401.5 338.375 430.5 331.125 430.5Z" stroke="#009688" stroke-width="3.62495" fill="#009688"/><path d="M309.375 445 316.625 445 316.625 474 309.375 474Z" stroke="#009688" stroke-width="3.62495" fill="#009688"/><path d="M331.125 445 338.375 445 338.375 474 331.125 474Z" stroke="#009688" stroke-width="3.62495" fill="#009688"/><path d="M352.875 401.5 360.125 401.5 360.125 430.5 352.875 430.5Z" stroke="#009688" stroke-width="3.62495" fill="#009688"/><path d="M352.875 445 360.125 445 360.125 474 352.875 474Z" stroke="#009688" stroke-width="3.62495" fill="#009688"/><path d="M229.625 401.5 280.375 401.5 280.375 408.75 229.625 408.75Z" stroke="#009688" stroke-width="3.62495" fill="#009688"/></g></svg>