<svg width="378" height="378" xmlns="http://www.w3.org/2000/svg" xmlns:xlink="http://www.w3.org/1999/xlink" overflow="hidden"><defs><clipPath id="clip0"><rect x="125" y="192" width="378" height="378"/></clipPath></defs><g clip-path="url(#clip0)" transform="translate(-125 -192)"><path d="M314 372.782C322.698 372.782 329.75 365.731 329.75 357.032 329.75 348.334 322.698 341.282 314 341.282 305.302 341.282 298.25 348.334 298.25 357.032 298.158 365.639 305.061 372.691 313.668 372.782 313.778 372.784 313.889 372.784 314 372.782ZM314 349.157C318.349 349.157 321.875 352.683 321.875 357.032 321.875 361.382 318.349 364.907 314 364.907 309.651 364.907 306.125 361.382 306.125 357.032 306.026 352.778 309.395 349.249 313.65 349.15 313.767 349.147 313.883 349.147 314 349.15Z" stroke="#2E75B6" stroke-width="3.93745" fill="#9DC3E6"/><path d="M365.188 364.907 365.188 347.224 366.826 348.862 387.34 328.139 314 257.756 239.061 329.34 259.954 350.095 262.812 347.232 262.812 364.907 168.312 364.907 168.312 506.693 286.438 506.693 286.438 463.688C286.438 448.465 298.778 436.125 314 436.125 329.222 436.125 341.562 448.465 341.562 463.688L341.562 506.693 459.688 506.693 459.688 364.907ZM259.934 338.975 250.346 329.45 314 268.679 376.122 328.285 366.81 337.688 365.188 336.085 365.188 336.057 314 284.87 262.812 336.057 262.812 336.112ZM451.812 498.818 349.438 498.818 349.438 463.688C349.438 444.116 333.572 428.25 314 428.25 294.428 428.25 278.562 444.116 278.562 463.688L278.562 498.818 176.188 498.818 176.188 372.782 270.688 372.782 270.688 339.357 275.968 334.077 275.968 334.077 314 295.993 348.571 330.572 348.571 330.572 357.312 339.349 357.312 372.782 451.812 372.782Z" stroke="#2E75B6" stroke-width="3.93745" fill="#9DC3E6"/><path d="M199.812 396.75 207.688 396.75 207.688 428.25 199.812 428.25Z" stroke="#2E75B6" stroke-width="3.93745" fill="#9DC3E6"/><path d="M223.438 396.75 231.312 396.75 231.312 428.25 223.438 428.25Z" stroke="#2E75B6" stroke-width="3.93745" fill="#9DC3E6"/><path d="M199.812 444 207.688 444 207.688 475.5 199.812 475.5Z" stroke="#2E75B6" stroke-width="3.93745" fill="#9DC3E6"/><path d="M223.438 444 231.312 444 231.312 475.5 223.438 475.5Z" stroke="#2E75B6" stroke-width="3.93745" fill="#9DC3E6"/><path d="M247.062 396.75 254.938 396.75 254.938 428.25 247.062 428.25Z" stroke="#2E75B6" stroke-width="3.93745" fill="#9DC3E6"/><path d="M247.062 444 254.938 444 254.938 475.5 247.062 475.5Z" stroke="#2E75B6" stroke-width="3.93745" fill="#9DC3E6"/><path d="M373.062 396.75 380.938 396.75 380.938 428.25 373.062 428.25Z" stroke="#2E75B6" stroke-width="3.93745" fill="#9DC3E6"/><path d="M396.688 396.75 404.562 396.75 404.562 428.25 396.688 428.25Z" stroke="#2E75B6" stroke-width="3.93745" fill="#9DC3E6"/><path d="M373.062 444 380.938 444 380.938 475.5 373.062 475.5Z" stroke="#2E75B6" stroke-width="3.93745" fill="#9DC3E6"/><path d="M396.688 444 404.562 444 404.562 475.5 396.688 475.5Z" stroke="#2E75B6" stroke-width="3.93745" fill="#9DC3E6"/><path d="M420.312 396.75 428.188 396.75 428.188 428.25 420.312 428.25Z" stroke="#2E75B6" stroke-width="3.93745" fill="#9DC3E6"/><path d="M420.312 444 428.188 444 428.188 475.5 420.312 475.5Z" stroke="#2E75B6" stroke-width="3.93745" fill="#9DC3E6"/><path d="M286.438 396.75 341.562 396.75 341.562 404.625 286.438 404.625Z" stroke="#2E75B6" stroke-width="3.93745" fill="#9DC3E6"/></g></svg>