<svg width="114" height="114" xmlns="http://www.w3.org/2000/svg" xmlns:xlink="http://www.w3.org/1999/xlink" overflow="hidden"><defs><clipPath id="clip0"><rect x="172" y="201" width="114" height="114"/></clipPath></defs><g clip-path="url(#clip0)" transform="translate(-172 -201)"><path d="M229 255.522C231.623 255.522 233.75 253.395 233.75 250.772 233.75 248.148 231.623 246.022 229 246.022 226.377 246.022 224.25 248.148 224.25 250.772 224.222 253.367 226.304 255.494 228.9 255.522 228.933 255.522 228.967 255.522 229 255.522ZM229 248.397C230.312 248.397 231.375 249.46 231.375 250.772 231.375 252.083 230.312 253.147 229 253.147 227.688 253.147 226.625 252.083 226.625 250.772 226.595 249.489 227.611 248.424 228.894 248.394 228.93 248.394 228.965 248.393 229 248.394Z"/><path d="M244.438 253.147 244.438 247.814 244.932 248.308 251.118 242.058 229 220.831 206.4 242.42 212.7 248.679 213.562 247.816 213.562 253.147 185.062 253.147 185.062 295.907 220.688 295.907 220.688 282.938C220.688 278.347 224.409 274.625 229 274.625 233.591 274.625 237.312 278.347 237.312 282.938L237.312 295.907 272.938 295.907 272.938 253.147ZM212.694 245.326 209.803 242.453 229 224.125 247.735 242.102 244.927 244.938 244.438 244.454 244.438 244.446 229 229.008 213.562 244.446 213.562 244.462ZM270.562 293.532 239.688 293.532 239.688 282.938C239.688 277.035 234.903 272.25 229 272.25 223.097 272.25 218.312 277.035 218.312 282.938L218.312 293.532 187.438 293.532 187.438 255.522 215.938 255.522 215.938 245.441 217.53 243.849 217.53 243.849 229 232.363 239.426 242.792 239.426 242.792 242.062 245.439 242.062 255.522 270.562 255.522Z"/><path d="M194.562 262.75 196.938 262.75 196.938 272.25 194.562 272.25Z"/><path d="M201.688 262.75 204.062 262.75 204.062 272.25 201.688 272.25Z"/><path d="M194.562 277 196.938 277 196.938 286.5 194.562 286.5Z"/><path d="M201.688 277 204.062 277 204.062 286.5 201.688 286.5Z"/><path d="M208.812 262.75 211.188 262.75 211.188 272.25 208.812 272.25Z"/><path d="M208.812 277 211.188 277 211.188 286.5 208.812 286.5Z"/><path d="M246.812 262.75 249.188 262.75 249.188 272.25 246.812 272.25Z"/><path d="M253.938 262.75 256.312 262.75 256.312 272.25 253.938 272.25Z"/><path d="M246.812 277 249.188 277 249.188 286.5 246.812 286.5Z"/><path d="M253.938 277 256.312 277 256.312 286.5 253.938 286.5Z"/><path d="M261.062 262.75 263.438 262.75 263.438 272.25 261.062 272.25Z"/><path d="M261.062 277 263.438 277 263.438 286.5 261.062 286.5Z"/><path d="M220.688 262.75 237.312 262.75 237.312 265.125 220.688 265.125Z"/></g></svg>